<?xml version="1.0" encoding="utf-8"?>
<!-- Generator: Adobe Illustrator 24.0.2, SVG Export Plug-In . SVG Version: 6.00 Build 0)  -->
<svg version="1.1" id="Capa_1" xmlns="http://www.w3.org/2000/svg" xmlns:xlink="http://www.w3.org/1999/xlink" x="0px" y="0px"
	 viewBox="0 0 320 90" style="enable-background:new 0 0 320 90;" xml:space="preserve">
<style type="text/css">
	.st0{fill:#F0FF42;}
</style>
<g>
	<g>
		<circle class="st0" cx="35.43" cy="44.98" r="8.55"/>
		<circle class="st0" cx="59.42" cy="44.98" r="8.55"/>
		<circle class="st0" cx="23.43" cy="65.78" r="8.55"/>
		<circle class="st0" cx="47.42" cy="65.78" r="8.55"/>
		<circle class="st0" cx="23.43" cy="24.18" r="8.55"/>
		<circle class="st0" cx="47.42" cy="24.18" r="8.55"/>
		<circle class="st0" cx="11.43" cy="44.98" r="8.55"/>
	</g>
	<g>
		<path class="st0" d="M107.85,24.61v6.92H90.02V42.5h13.66v6.8H90.02v18.07h-8.58V24.61H107.85z"/>
		<path class="st0" d="M117.89,22.04v45.33h-8.58V22.04H117.89z"/>
		<path class="st0" d="M120.07,41.15c1.37-2.65,3.23-4.7,5.57-6.13c2.35-1.43,4.97-2.14,7.87-2.14c2.53,0,4.75,0.51,6.65,1.53
			c1.9,1.02,3.42,2.31,4.56,3.86v-4.84h8.64v33.94h-8.64v-4.96c-1.1,1.59-2.62,2.91-4.56,3.95c-1.94,1.04-4.18,1.56-6.71,1.56
			c-2.86,0-5.46-0.74-7.81-2.21c-2.35-1.47-4.21-3.54-5.57-6.22c-1.37-2.67-2.05-5.75-2.05-9.22
			C118.02,46.85,118.7,43.81,120.07,41.15z M143.5,45.04c-0.82-1.49-1.92-2.63-3.31-3.43c-1.39-0.8-2.88-1.19-4.47-1.19
			c-1.59,0-3.06,0.39-4.41,1.16c-1.35,0.78-2.44,1.91-3.28,3.4c-0.84,1.49-1.26,3.26-1.26,5.3c0,2.04,0.42,3.83,1.26,5.36
			c0.84,1.53,1.94,2.71,3.31,3.52c1.37,0.82,2.83,1.23,4.38,1.23c1.59,0,3.08-0.4,4.47-1.19c1.39-0.8,2.49-1.94,3.31-3.43
			c0.82-1.49,1.22-3.28,1.22-5.36C144.72,48.32,144.31,46.53,143.5,45.04z"/>
		<path class="st0" d="M161.14,66.42c-2.21-1-3.95-2.36-5.24-4.07c-1.29-1.72-1.99-3.61-2.11-5.7h8.64
			c0.16,1.31,0.81,2.39,1.93,3.25c1.12,0.86,2.52,1.29,4.2,1.29c1.63,0,2.91-0.33,3.83-0.98c0.92-0.65,1.38-1.49,1.38-2.51
			c0-1.1-0.56-1.93-1.68-2.48c-1.12-0.55-2.91-1.15-5.36-1.81c-2.53-0.61-4.6-1.25-6.22-1.9c-1.61-0.65-3-1.65-4.17-3
			c-1.16-1.35-1.75-3.16-1.75-5.45c0-1.88,0.54-3.59,1.62-5.15c1.08-1.55,2.63-2.78,4.66-3.68c2.02-0.9,4.4-1.35,7.14-1.35
			c4.04,0,7.27,1.01,9.68,3.03c2.41,2.02,3.74,4.75,3.98,8.18h-8.21c-0.12-1.35-0.68-2.42-1.68-3.22c-1-0.8-2.34-1.19-4.01-1.19
			c-1.55,0-2.75,0.29-3.58,0.86c-0.84,0.57-1.26,1.37-1.26,2.39c0,1.14,0.57,2.01,1.72,2.6c1.14,0.59,2.92,1.19,5.33,1.81
			c2.45,0.61,4.47,1.25,6.06,1.9c1.59,0.65,2.97,1.66,4.13,3.03c1.16,1.37,1.77,3.18,1.81,5.42c0,1.96-0.54,3.72-1.62,5.27
			c-1.08,1.55-2.63,2.77-4.66,3.64c-2.02,0.88-4.38,1.32-7.08,1.32C165.83,67.92,163.34,67.42,161.14,66.42z"/>
		<path class="st0" d="M208.86,34.63c2,1.12,3.56,2.78,4.69,4.96c1.12,2.18,1.68,4.81,1.68,7.87v19.91h-8.58V48.63
			c0-2.7-0.67-4.77-2.02-6.22c-1.35-1.45-3.19-2.17-5.51-2.17c-2.37,0-4.24,0.73-5.6,2.17c-1.37,1.45-2.05,3.52-2.05,6.22v18.74
			h-8.58V22.04h8.58v15.62c1.1-1.47,2.57-2.62,4.41-3.46c1.84-0.84,3.88-1.26,6.13-1.26C204.57,32.94,206.86,33.51,208.86,34.63z"/>
		<path class="st0" d="M225.95,56.9c-0.04,0.24-0.06,0.57-0.06,0.98c0,0.82,0.23,1.4,0.7,1.75c0.47,0.35,1.26,0.52,2.36,0.52h4.04
			l-1.29,7.23h-5.45c-6.13,0-9.19-2.55-9.19-7.66c0-0.98,0.08-1.94,0.24-2.88l2.88-16.36h-4.04l1.23-7.04h4.1l1.47-8.39h8.64
			l-1.47,8.39h7.53l-1.23,7.04h-7.6L225.95,56.9z"/>
		<path class="st0" d="M243.59,56.9c-0.04,0.24-0.06,0.57-0.06,0.98c0,0.82,0.23,1.4,0.7,1.75c0.47,0.35,1.26,0.52,2.36,0.52h4.04
			l-1.29,7.23h-5.45c-6.13,0-9.19-2.55-9.19-7.66c0-0.98,0.08-1.94,0.24-2.88l2.88-16.36h-4.04l1.23-7.04h4.1l1.47-8.39h8.64
			l-1.47,8.39h7.53l-1.23,7.04h-7.6L243.59,56.9z"/>
		<path class="st0" d="M256.85,66.15c-2.23-1.18-3.95-2.86-5.18-5.02c-1.23-2.16-1.84-4.66-1.84-7.47c0-3.84,0.91-7.34,2.73-10.51
			c1.82-3.16,4.31-5.67,7.47-7.5c3.16-1.84,6.69-2.76,10.57-2.76c2.9,0,5.48,0.6,7.75,1.81c2.27,1.21,4.02,2.89,5.27,5.05
			c1.25,2.17,1.87,4.66,1.87,7.47c0,3.88-0.92,7.39-2.76,10.54c-1.84,3.14-4.36,5.63-7.57,7.44c-3.21,1.82-6.75,2.73-10.63,2.73
			C261.64,67.92,259.08,67.33,256.85,66.15z M271.28,58.79c1.67-1.18,2.98-2.76,3.92-4.72c0.94-1.96,1.41-4.02,1.41-6.19
			c0-2.45-0.68-4.34-2.05-5.67c-1.37-1.33-3.09-1.99-5.18-1.99c-2.08,0-3.93,0.59-5.54,1.78c-1.61,1.18-2.87,2.77-3.77,4.75
			c-0.9,1.98-1.35,4.07-1.35,6.28c0,2.41,0.64,4.27,1.93,5.57c1.29,1.31,2.97,1.96,5.05,1.96C267.74,60.57,269.6,59.98,271.28,58.79
			z"/>
		<path class="st0" d="M289.81,66.15c-2.23-1.18-3.95-2.86-5.18-5.02c-1.23-2.16-1.84-4.66-1.84-7.47c0-3.84,0.91-7.34,2.73-10.51
			c1.82-3.16,4.31-5.67,7.47-7.5c3.16-1.84,6.69-2.76,10.57-2.76c2.9,0,5.48,0.6,7.75,1.81c2.27,1.21,4.02,2.89,5.27,5.05
			c1.25,2.17,1.87,4.66,1.87,7.47c0,3.88-0.92,7.39-2.76,10.54c-1.84,3.14-4.36,5.63-7.57,7.44c-3.21,1.82-6.75,2.73-10.63,2.73
			C294.59,67.92,292.03,67.33,289.81,66.15z M304.23,58.79c1.67-1.18,2.98-2.76,3.92-4.72c0.94-1.96,1.41-4.02,1.41-6.19
			c0-2.45-0.68-4.34-2.05-5.67c-1.37-1.33-3.09-1.99-5.18-1.99c-2.08,0-3.93,0.59-5.54,1.78c-1.61,1.18-2.87,2.77-3.77,4.75
			c-0.9,1.98-1.35,4.07-1.35,6.28c0,2.41,0.64,4.27,1.93,5.57c1.29,1.31,2.97,1.96,5.05,1.96C300.7,60.57,302.56,59.98,304.23,58.79
			z"/>
	</g>
</g>
</svg>
